<?xml version="1.0" standalone="no"?><!DOCTYPE svg PUBLIC "-//W3C//DTD SVG 1.1//EN" "http://www.w3.org/Graphics/SVG/1.1/DTD/svg11.dtd"><svg t="1589938402097" class="icon" viewBox="0 0 1024 1024" version="1.1" xmlns="http://www.w3.org/2000/svg" p-id="6225" xmlns:xlink="http://www.w3.org/1999/xlink" width="64" height="64"><defs><style type="text/css"></style></defs><path d="M874.240073 149.931874A509.011637 509.011637 0 0 0 512.086613 0.001707c-136.788877 0-265.385782 53.247823-362.068126 149.930167A508.584971 508.584971 0 0 0 0.002987 512a508.584971 508.584971 0 0 0 149.930167 362.068126A509.011637 509.011637 0 0 0 512.00128 1023.998293a509.267636 509.267636 0 0 0 362.238793-150.0155 512.595625 512.595625 0 0 0 0-724.050919m-47.189176 676.861743A442.793191 442.793191 0 0 1 512.00128 957.438515 442.707858 442.707858 0 0 1 197.12233 826.87895 442.281192 442.281192 0 0 1 66.733431 512c0-118.95427 46.335846-230.825897 130.474232-314.87895A442.537192 442.537192 0 0 1 512.00128 66.732151c119.039603 0 230.825897 46.335846 314.964283 130.388899a445.694514 445.694514 0 0 1 0 629.7579M733.440542 637.439582L556.374465 535.125256v-279.03907a42.666524 42.666524 0 0 0-85.333048 0v298.665671c0 15.786614 19.626601 29.013237 32.426558 36.351879 3.583988 5.290649 13.311956 10.154633 19.285269 13.653288l176.04208 106.666311c20.394599 11.690628 42.495858 4.693318 54.271819-15.701281 11.775961-20.479932 0.85333-46.506512-19.626601-58.282472" p-id="6226"></path></svg>