<?xml version="1.0" standalone="no"?><!DOCTYPE svg PUBLIC "-//W3C//DTD SVG 1.1//EN" "http://www.w3.org/Graphics/SVG/1.1/DTD/svg11.dtd"><svg t="1589938399000" class="icon" viewBox="0 0 1024 1024" version="1.1" xmlns="http://www.w3.org/2000/svg" p-id="6091" xmlns:xlink="http://www.w3.org/1999/xlink" width="64" height="64"><defs><style type="text/css"></style></defs><path d="M511.9 64c-247.4 0-448 200.6-448 448s200.6 448 448 448 448-200.6 448-448-200.6-448-448-448z m254.7 327.6l-306 306c-6.2 6.2-14.4 9.4-22.6 9.4-4.3 0-8.5-0.9-12.5-2.5-4.1-1.6-8-4-11.3-7.3l-157-157c-12.5-12.5-12.5-32.8 0-45.3s32.8-12.5 45.3 0l135.2 135.2 283.7-283.7c12.5-12.5 32.8-12.5 45.3 0 12.4 12.5 12.4 32.7-0.1 45.2z" p-id="6092"></path></svg>