<?xml version="1.0" standalone="no"?><!DOCTYPE svg PUBLIC "-//W3C//DTD SVG 1.1//EN" "http://www.w3.org/Graphics/SVG/1.1/DTD/svg11.dtd"><svg t="1589363944388" class="icon" viewBox="0 0 1024 1024" version="1.1" xmlns="http://www.w3.org/2000/svg" p-id="1957" xmlns:xlink="http://www.w3.org/1999/xlink" width="64" height="64"><defs><style type="text/css"></style></defs><path d="M934.7 349.5l-0.5-0.6c-8.6-9.4-17.1-18.7-25.6-28.2l-4.4-4.7c-42.7-47-114.3-125.6-147.3-159.3-16.2-20.1-40.2-32.5-66-34.2H336.3c-26.9 0-52.2 12.5-69 34.1-19.2 20.9-48.7 53.3-80.2 87.5l-6.4 6.6c-35.8 38.9-72.3 78.6-89.7 98.1-35.3 39.5-36.2 99-2.1 139.6L91 491c33.1 36.3 102.9 111.9 184 199.8l169.5 183.7c27.4 37.7 80.2 46 117.9 18.5 7.1-5.2 13.4-11.4 18.5-18.5L733.3 709c67.4-72.8 134.6-145.7 201.6-218.8 33.9-40.8 33.9-100 0-140.8h-0.2z" p-id="1958" data-spm-anchor-id="a313x.7781069.0.i7" class="selected" ></path><path d="M512.6 843.9c-3.3 0-7.9 0-20.3-13.3l-165.2-179C264 583.4 201 515 138.1 446.6c-14-20.5-14.7-38.1-1.7-52.3 18.9-21.3 60.1-65.8 97.3-106.6 29.8-32.4 60.6-65.8 79.9-87.2 11.3-12.6 16.9-12.6 21-12.6h354.9c7.4 0 9.4 1.3 22.3 14.2 32.6 33.4 104.4 112.2 147.7 159.9l7 7.7c10.5 11.6 18.5 20 22.2 24.2 11.6 14.7 11.6 35.4 0 50.1-38.7 42.8-112.2 122.1-190.9 207.3L532.7 830c-12 13.8-16.3 13.8-19.8 13.8h-0.3v0.1z" p-id="1959" data-spm-anchor-id="a313x.7781069.0.i8" class="" ></path><path d="M688 400.3c-1.5-17.3-16.6-30.2-33.9-28.9-8.3 0.7-15.9 4.7-21.2 11.1l-132.2 158-132.4-158.1c-11.3-13-31.1-14.4-44.1-3l-0.1 0.1c-12.9 11.3-14.5 30.7-3.6 43.9L476.7 610l1.6 1.6c1 1 2 2 3.1 2.9l1.6 1.1c3.6 2.4 7.5 4.1 11.7 5 4.6 0.8 9.2 0.7 13.7-0.4 2.1-0.5 4.1-1.3 6.1-2.4 2.2-1.1 4.2-2.5 6.1-4.1 0.8-0.7 1.5-1.5 1.9-1.9l158.3-188.7c5.4-6.4 7.9-14.6 7.2-22.8z" p-id="1960"></path></svg>
