<?xml version="1.0" standalone="no"?><!DOCTYPE svg PUBLIC "-//W3C//DTD SVG 1.1//EN" "http://www.w3.org/Graphics/SVG/1.1/DTD/svg11.dtd"><svg t="1589621252642" class="icon" viewBox="0 0 1024 1024" version="1.1" xmlns="http://www.w3.org/2000/svg" p-id="4499" xmlns:xlink="http://www.w3.org/1999/xlink" width="64" height="64"><defs><style type="text/css"></style></defs><path d="M956.549621 275.006416H653.556204v-151.880676c0-66.554454-54.011499-120.736605-120.480627-120.736606h-44.369636c-66.383801 0-120.480627 54.182151-120.480626 120.736606v151.880676H65.061245A65.189234 65.189234 0 0 0 0.042663 340.19565V515.370386c0 36.007666 29.181568 65.189234 65.018582 65.189234H66.597117v221.250896a711.620698 711.620698 0 0 1-20.648946 167.580701 43.004416 43.004416 0 0 0 41.297892 54.438131h847.204066a42.748438 42.748438 0 0 0 41.212566-54.438131c-0.170652-0.767936-20.56362-75.513707-20.56362-167.580701V580.644946h1.535872c35.837014 0 65.018582-29.266894 65.018582-65.189234V340.110324a65.189234 65.189234 0 0 0-65.018582-65.103908zM85.710191 360.844596h325.348887a42.833764 42.833764 0 0 0 42.833764-42.91909V123.12574c0-19.625031 15.35872-34.983751 34.813099-34.983752h44.369636c19.625031 0 34.898425 15.35872 34.898425 34.983752v194.799766c0 23.72069 19.113074 42.91909 42.748438 42.91909h325.348887v133.96217H85.624865V360.929923z m795.83768 577.231898H753.558537V734.061495a42.833764 42.833764 0 1 0-85.582202 0v203.929672h-114.337138v-203.929672a42.833764 42.833764 0 1 0-85.667528 0v203.929672h-114.337139v-203.929672a42.833764 42.833764 0 1 0-85.667527 0v203.929672H140.148321a806.332806 806.332806 0 0 0 12.116324-136.095325V580.644946h717.166902v221.250896c0 53.499542 5.972836 101.623531 12.030998 136.180652z" p-id="4500"></path></svg>