<?xml version="1.0" standalone="no"?><!DOCTYPE svg PUBLIC "-//W3C//DTD SVG 1.1//EN" "http://www.w3.org/Graphics/SVG/1.1/DTD/svg11.dtd"><svg class="icon" width="64px" height="64.00px" viewBox="0 0 1024 1024" version="1.1" xmlns="http://www.w3.org/2000/svg"><path d="M400.108119 648.310525c-41.872666-45.536103-89.173972-105.479333-128.113843-171.033351-27.366278-45.918819-50.556443-93.361341-15.71696-119.315456L73.58646 114.453728c-36.744879 34.209126-132.427078 208.612225 119.317503 553.35692C458.13879 1031.151887 668.864142 992.178247 708.622658 961.378777L530.569426 723.628932C497.259786 748.383732 463.567429 717.180056 400.108119 648.310525L400.108119 648.310525zM801.286104 851.481831c0 0-138.991588-185.179536-139.052986-185.267541-10.990309-14.675234-31.578206-17.418718-46.213531-6.630001l-67.412342 50.260707 178.521906 238.407831c0 0 67.446112-50.085722 67.412342-50.172703l0.148379-0.088004c15.454994-11.522428 17.064654-32.230052 6.569626-46.334281L801.286104 851.481831 801.286104 851.481831zM342.110193 294.164716l0.027629-0.148379c15.45397-11.54801 17.185404-32.209586 6.683213-46.194088l0.059352-0.207731c0 0-142.983505-190.574407-143.04388-190.619432-11.025101-14.765285-31.667234-17.436114-46.213531-6.670933l-67.438948 50.306756 182.507684 243.668649C274.690688 344.299557 342.110193 294.27421 342.110193 294.164716L342.110193 294.164716zM649.558447 88.283696l349.563444 0 0 62.432934-349.563444 0 0-62.432934ZM652.993686 91.718935 995.685629 91.718935 995.685629 147.281391 652.993686 147.281391 652.993686 91.718935ZM649.558447 260.70465l349.563444 0 0 62.433958-349.563444 0 0-62.433958ZM652.993686 264.140912 995.685629 264.140912 995.685629 319.702346 652.993686 319.702346 652.993686 264.140912ZM649.558447 434.992115l349.563444 0 0 62.432934-349.563444 0 0-62.432934ZM652.993686 438.427354 995.685629 438.427354 995.685629 493.989811 652.993686 493.989811 652.993686 438.427354ZM504.157893 525.002129M550.325375 119.500675m-36.074613 0a35.253 35.253 0 1 0 72.149227 0 35.253 35.253 0 1 0-72.149227 0ZM550.325375 291.921629m-36.074613 0a35.253 35.253 0 1 0 72.149227 0 35.253 35.253 0 1 0-72.149227 0ZM550.325375 466.209094m-36.074613 0a35.253 35.253 0 1 0 72.149227 0 35.253 35.253 0 1 0-72.149227 0Z" /></svg>
