<?xml version="1.0" standalone="no"?><!DOCTYPE svg PUBLIC "-//W3C//DTD SVG 1.1//EN" "http://www.w3.org/Graphics/SVG/1.1/DTD/svg11.dtd"><svg t="1589621258723" class="icon" viewBox="0 0 1024 1024" version="1.1" xmlns="http://www.w3.org/2000/svg" p-id="4767" xmlns:xlink="http://www.w3.org/1999/xlink" width="64" height="64"><defs><style type="text/css"></style></defs><path d="M288 416v-96c0-70.692 57.308-128 128-128s128 57.308 128 128v96h64v-96c0-106-86-192-192-192s-192 86-192 192v96h64z m224 288h-64v-64l384-384 64 64-384 384z" p-id="4768"></path><path d="M544 736H416V608l160-160H192c-35.302 0.108-63.892 28.698-64 64v320c0.108 35.302 28.698 63.892 64 64h448c35.302-0.108 63.892-28.698 64-64V576L544 736z" p-id="4769"></path></svg>