<?xml version="1.0" standalone="no"?><!DOCTYPE svg PUBLIC "-//W3C//DTD SVG 1.1//EN" "http://www.w3.org/Graphics/SVG/1.1/DTD/svg11.dtd"><svg t="1589938391343" class="icon" viewBox="0 0 1024 1024" version="1.1" xmlns="http://www.w3.org/2000/svg" p-id="5895" xmlns:xlink="http://www.w3.org/1999/xlink" width="64" height="64"><defs><style type="text/css"></style></defs><path d="M1002.797176 307.802353l0.963765-0.602353v56.681412l-0.963765-0.602353-480.316235 277.443765-0.301176 0.481882-0.301177-0.120471-0.361412 0.120471-0.301176-0.481882L40.96 363.339294l-0.843294 0.481882v-56.44047l0.843294 0.361412L521.155765 30.358588l0.301176-0.481882 0.421647 0.180706 0.301177-0.180706 0.240941 0.481882 480.37647 277.38353zM40.116706 659.395765v55.657411l481.099294 277.684706 0.301176 0.602353 0.361412-0.180706 0.301177 0.180706 0.240941-0.602353 481.28-277.865411v-55.657412l-481.882353 278.287059-481.701647-278.106353z m0-176.067765v55.597176l481.099294 277.865412 0.301176 0.481883 0.361412-0.240942 0.301177 0.240942 0.240941-0.602353 481.28-277.805177v-55.657412l-481.882353 278.287059L40.176941 483.388235z" p-id="5896"></path></svg>