<?xml version="1.0" standalone="no"?><!DOCTYPE svg PUBLIC "-//W3C//DTD SVG 1.1//EN" "http://www.w3.org/Graphics/SVG/1.1/DTD/svg11.dtd"><svg t="1589435352945" class="icon" viewBox="0 0 1024 1024" version="1.1" xmlns="http://www.w3.org/2000/svg" p-id="2786" xmlns:xlink="http://www.w3.org/1999/xlink" width="64" height="64"><defs><style type="text/css"></style></defs><path d="M512 398.222222a113.777778 113.777778 0 1 1 0-227.555555 113.777778 113.777778 0 0 1 0 227.555555z m312.888889 85.333334a85.333333 85.333333 0 1 1 0-170.666667 85.333333 85.333333 0 0 1 0 170.666667zM199.111111 483.555556a85.333333 85.333333 0 1 1 0-170.666667 85.333333 85.333333 0 0 1 0 170.666667z m-28.444444 56.888888h56.888889a85.333333 85.333333 0 0 1 85.333333 85.333334v256a56.888889 56.888889 0 0 1-56.888889 56.888889H142.222222a56.888889 56.888889 0 0 1-56.888889-56.888889v-256a85.333333 85.333333 0 0 1 85.333334-85.333334z m625.777777 0h56.888889a85.333333 85.333333 0 0 1 85.333334 85.333334v256a56.888889 56.888889 0 0 1-56.888889 56.888889h-113.777778a56.888889 56.888889 0 0 1-56.888889-56.888889v-256a85.333333 85.333333 0 0 1 85.333333-85.333334z m-312.888888-85.333333h56.888888a113.777778 113.777778 0 0 1 113.777778 113.777778v312.888889a56.888889 56.888889 0 0 1-56.888889 56.888889h-170.666666a56.888889 56.888889 0 0 1-56.888889-56.888889V568.888889a113.777778 113.777778 0 0 1 113.777778-113.777778z" p-id="2787"></path></svg>