<?xml version="1.0" standalone="no"?><!DOCTYPE svg PUBLIC "-//W3C//DTD SVG 1.1//EN" "http://www.w3.org/Graphics/SVG/1.1/DTD/svg11.dtd"><svg t="1589363998961" class="icon" viewBox="0 0 1024 1024" version="1.1" xmlns="http://www.w3.org/2000/svg" p-id="2591" xmlns:xlink="http://www.w3.org/1999/xlink" width="64" height="64"><defs><style type="text/css"></style></defs><path d="M422.82443662 548.87492267c-145.04136249 0-263.04111502-118.00674304-263.04111502-263.04810553S277.78307413 22.78803229 422.82443662 22.78803229c145.04136249 0 263.04577536 117.99975253 263.04577536 263.04111502S567.86579911 548.87492267 422.82443662 548.87492267z m0-470.97839616c-114.65596018 0-207.9326208 93.27666062-207.9326208 207.9326208s93.27666062 207.93728114 207.9326208 207.93728114c114.65829035 0 207.9326208-93.28132096 207.9326208-207.93728114s-93.27433045-207.9326208-207.9326208-207.9326208z"  p-id="2592"></path><path d="M674.38480953 536.93979762c-15.21833301 0.01165085-27.56356779-12.31494258-27.5775488-27.53094543a27.55657728 27.55657728 0 0 1 21.3606582-26.87383779c94.58854571-21.97349262 160.64883371-105.25838905 160.64883371-202.53827982 0-119.86388765-86.21624889-213.75804302-196.28177635-213.75804303-15.21600285-0.00699051-27.54958677-12.34756494-27.54259627-27.56589795 0.00699051-15.20901234 12.33358393-27.53560576 27.54259627-27.54259627 140.96822727 0 251.39726109 118.09994979 251.39726108 268.86653725 0 123.05155869-83.60179939 228.40781483-203.29092438 256.21605035-2.097152 0.49399581-4.19663417 0.72701269-6.25650346 0.72701269z" p-id="2593"></path><path d="M421.88770873 530.93262222c-201.98602979 0-365.72699762 163.73630749-365.72699762 365.72699762 0 2.33948957 0.06990507 7.03711005 0.06990507 7.03711005S118.784 971.276288 461.03221589 969.703424c223.99913529 0.03029219 326.58482062-73.04380416 326.58482062-73.04380416 0-201.99069013-163.73863765-365.72699762-365.72932778-365.72699762z"  p-id="2594"></path><path d="M449.35340942 997.28796331c-334.33962269 0-406.23698375-67.20207075-413.33700835-74.8683264a27.53793593 27.53793593 0 0 1-7.3330415-18.30813696s-0.07689557-4.97491058-0.07689557-7.44954994c0-216.85716765 176.42407709-393.28124473 393.28124473-393.28124473s393.28590507 176.43106759 393.28590506 393.28124473c0 8.90590549-4.31081245 17.27121181-11.56928853 22.44418674-4.48091477 3.19233138-112.37938517 78.16085504-342.42996907 78.16085504h-0.00466033l-11.81628644 0.02097152z m-365.56388579-107.77031112c25.24737991 14.42374542 115.78143175 52.66181689 365.56388579 52.6618169l11.55064719-0.0233017c169.45687211 0 266.64821646-43.47396096 298.80221696-60.91061475-8.08568605-179.34144853-156.52210461-322.7516928-337.82555535-322.7516928-184.07169138-0.00699051-334.27437795 147.83523499-338.09119459 331.02379235z m901.89186844 17.22227826c-15.21600285 0-27.55424711-12.33358393-27.55424711-27.55191694 0-188.73202915-168.07974229-319.96248064-284.25497259-338.51528533-15.02725917-2.39774379-25.26602126-16.52555776-22.8659473-31.55281693v-0.00233016c2.41405497-15.02026866 16.53254827-25.24971008 31.55514709-22.86594731 135.14979555 21.58901475 330.68125753 173.93545671 330.68125753 392.93637973-0.00699051 15.21600285-12.34290461 27.55191694-27.56123762 27.55191694zM274.04548323 321.80229461a15.73097017 15.73097017 0 0 1 17.07780779-14.25131292 15.72397966 15.72397966 0 0 1 14.16742685 13.5336209c7.59868075 54.90110919 51.51770397 96.75793294 106.8126117 101.79342792 68.13180814 6.20057941 125.96659997-37.94913053 131.65454222-100.51183502a15.72397966 15.72397966 0 0 1 17.08945863-14.22801124 15.73796067 15.73796067 0 0 1 14.23966208 17.08013796c-7.29575879 80.12518741-80.13683826 136.78324395-165.83578965 128.98416867-69.9400192-6.36136107-125.49823602-59.33309042-135.11484303-128.8024155a15.56552818 15.56552818 0 0 1-0.09087659-3.59778077z" p-id="2595"></path></svg>
