<?xml version="1.0" standalone="no"?><!DOCTYPE svg PUBLIC "-//W3C//DTD SVG 1.1//EN" "http://www.w3.org/Graphics/SVG/1.1/DTD/svg11.dtd"><svg t="1590546762933" class="icon" viewBox="0 0 1288 1024" version="1.1" xmlns="http://www.w3.org/2000/svg" p-id="3022" xmlns:xlink="http://www.w3.org/1999/xlink" width="80.5" height="64"><defs><style type="text/css"></style></defs><path d="M322.84846 292.252723c-2.230937 2.230937-2.974582 5.205519-1.487291 8.180102 0.743646 2.974582 3.718228 4.461874 6.69281 4.461874h199.297023l-0.743646 326.460421c0 5.949165 2.230937 11.154684 5.949165 14.872912s9.667393 5.949165 14.872912 5.949165H743.751873c5.205519 0 11.154684-2.230937 14.872912-5.949165s5.949165-9.667393 5.949165-14.872912l-0.743645-326.460421h199.297022c2.974582 0 5.949165-1.487291 6.692811-4.461874 0.743646-2.974582 0-5.949165-1.487292-8.180102L660.463565 5.949165c-3.718228-3.718228-8.923747-5.949165-14.872912-5.949165-5.205519 0-10.411038 2.230937-14.872912 5.949165L322.84846 292.252723z" p-id="3023"></path><path d="M1275.458482 724.310821l-193.347858-149.472767c-11.154684-8.923747-31.233115-15.616558-45.362382-15.616558h-112.290486l186.655047 185.911402h-185.911402l-94.442992 134.599854H457.448315l-90.724764-134.599854h-185.911402l185.167756-185.911402H252.202128c-14.129267 0-34.207698 6.69281-45.362382 15.616558l-193.347858 149.472767c-11.154684 8.923747-16.360203 26.027596-11.89833 39.413217l77.339143 236.479303c4.461874 13.385621 19.334786 23.796659 33.464053 23.796659h1066.387799c14.129267 0 29.002179-11.154684 32.720407-23.796659l75.851852-236.479303c4.461874-13.385621-1.487291-31.233115-11.89833-39.413217z" p-id="3024"></path></svg>