<?xml version="1.0" standalone="no"?><!DOCTYPE svg PUBLIC "-//W3C//DTD SVG 1.1//EN" "http://www.w3.org/Graphics/SVG/1.1/DTD/svg11.dtd"><svg t="1589364107818" class="icon" viewBox="0 0 1048 1024" version="1.1" xmlns="http://www.w3.org/2000/svg" p-id="3854" xmlns:xlink="http://www.w3.org/1999/xlink" width="65.5" height="64"><defs><style type="text/css"></style></defs><path d="M517.953727 502.855442c-138.668651 0-251.451535-112.782884-251.451535-251.427721S379.285075 0 517.953727 0s251.427721 112.782884 251.42772 251.427721-112.782884 251.427721-251.42772 251.427721z m0-451.679256c-110.449116 0-200.275349 89.850047-200.275349 200.275349 0 110.401488 89.850047 200.227721 200.275349 200.227721 110.401488 0 200.227721-89.850047 200.22772-200.251535 0-110.401488-89.826233-200.251535-200.251534-200.251535z m249.998883 822.486326c-105.781581 0-191.845209-86.063628-191.845209-191.821396 0-105.781581 86.063628-191.845209 191.845209-191.845209 105.781581 0 191.845209 86.063628 191.84521 191.845209 0 105.757767-86.063628 191.821395-191.84521 191.821396z m0-332.490419a140.669023 140.669023 0 1 0 140.669023 140.669023 140.835721 140.835721 0 0 0-140.669023-140.692837z"  p-id="3855"></path><path d="M25.600238 1015.093581A25.6 25.6 0 0 1 0.000238 989.469767c-0.23814-296.793302 240.139907-537.6 536.957023-537.861953h0.904931a25.6 25.6 0 0 1 0 51.2C269.336052 502.593488 51.438378 720.062512 51.176424 988.588651v0.90493c0 14.145488-11.430698 25.6-25.576186 25.6z m997.090233-38.340465c-6.763163 0-13.288186-2.690977-18.074791-7.501395l-144.169674-144.169674a25.6 25.6 0 0 1 36.197209-36.19721l144.169674 144.169675a25.6 25.6 0 0 1-18.098604 43.698604z" p-id="3856"></path></svg>
