<?xml version="1.0" standalone="no"?><!DOCTYPE svg PUBLIC "-//W3C//DTD SVG 1.1//EN" "http://www.w3.org/Graphics/SVG/1.1/DTD/svg11.dtd"><svg t="1589364104409" class="icon" viewBox="0 0 1029 1024" version="1.1" xmlns="http://www.w3.org/2000/svg" p-id="3719" xmlns:xlink="http://www.w3.org/1999/xlink" width="64.3125" height="64"><defs><style type="text/css"></style></defs><path d="M514.547264 5.094527C234.348259 5.094527 5.094527 234.348259 5.094527 514.547264c0 61.134328 10.189055 117.174129 30.567165 178.308457v300.577115h300.577114c56.039801 20.378109 117.174129 30.567164 178.308458 30.567164 280.199005 0 509.452736-229.253731 509.452736-509.452736s-229.253731-509.452736-509.452736-509.452737z m0 957.771145c-56.039801 0-106.985075-10.189055-157.930349-30.567165H101.890547v-254.726368c-20.378109-50.945274-30.567164-106.985075-30.567164-157.930348 0-244.537313 198.686567-448.318408 448.318408-448.318408 244.537313 0 448.318408 198.686567 448.318408 448.318408-5.094527 244.537313-203.781095 443.223881-453.412935 443.223881z" p-id="3720"></path><path d="M519.641791 662.288557c-30.567164 0-56.039801 25.472637-56.039801 56.039801 0 30.567164 25.472637 56.039801 56.039801 56.039801s56.039801-25.472637 56.039801-56.039801c0-30.567164-25.472637-56.039801-56.039801-56.039801zM514.547264 254.726368c-71.323383 0-147.741294 40.756219-152.835821 127.363184h91.701492c10.189055-25.472637 30.567164-45.850746 61.134329-45.850746 35.661692 0 61.134328 25.472637 61.134328 61.134328 0 20.378109-15.283582 40.756219-25.472637 50.945274l-50.945273 61.134328c-20.378109 25.472637-25.472637 45.850746-25.472637 76.417911h91.701492c0-15.283582 10.189055-30.567164 15.283582-35.661692l50.945274-66.228855c15.283582-20.378109 35.661692-50.945274 35.661692-86.606966 5.094527-96.79602-76.41791-142.646766-152.835821-142.646766z" p-id="3721"></path></svg>