<?xml version="1.0" standalone="no"?><!DOCTYPE svg PUBLIC "-//W3C//DTD SVG 1.1//EN" "http://www.w3.org/Graphics/SVG/1.1/DTD/svg11.dtd"><svg t="1589365046814" class="icon" viewBox="0 0 1296 1024" version="1.1" xmlns="http://www.w3.org/2000/svg" p-id="4575" width="81" height="64" xmlns:xlink="http://www.w3.org/1999/xlink"><defs><style type="text/css"></style></defs><path d="M973.183381 360.866032a8.32243 8.32243 0 0 0 1.841849-8.663514 7.230964 7.230964 0 0 0-6.753447-4.979815h-200.693358l0.4093-323.619745A24.557991 24.557991 0 0 0 761.711794 6.821664 20.669642 20.669642 0 0 0 746.294833 0H549.830906a20.737859 20.737859 0 0 0-15.280527 6.889881 24.626207 24.626207 0 0 0-6.344148 16.713077l0.4093 323.619745H327.785739a7.230964 7.230964 0 0 0-6.685231 4.979815 8.32243 8.32243 0 0 0 1.84185 8.663514l310.385717 313.660115a20.669642 20.669642 0 0 0 14.734794 6.275931 20.669642 20.669642 0 0 0 14.734795-6.275931l310.385717-313.660115z m309.226034 333.852241l-194.622077-165.493571a81.859969 81.859969 0 0 0-45.5005-17.05416h-77.221237L1184.927835 716.274732l-254.857371 0.136433-95.093998 148.507628H460.262456L369.056807 716.479382l-253.493038-0.136433 227.502498-204.240624-89.295583 0.068217a81.859969 81.859969 0 0 0-45.432283 17.05416L13.648107 694.718273c-11.051096 9.34568-16.508427 28.855639-12.142562 43.385784l77.630537 258.813936c4.365865 14.461928 19.373526 26.331623 33.357938 26.331624h1072.570248c13.984411 0 28.923856-11.869696 33.221505-26.39984l76.402638-258.74572c4.229432-14.530145-1.2279-34.040104-12.278996-43.385784z" p-id="4576"></path></svg>