<?xml version="1.0" standalone="no"?><!DOCTYPE svg PUBLIC "-//W3C//DTD SVG 1.1//EN" "http://www.w3.org/Graphics/SVG/1.1/DTD/svg11.dtd"><svg t="1589365113879" class="icon" viewBox="0 0 1024 1024" version="1.1" xmlns="http://www.w3.org/2000/svg" p-id="4907" xmlns:xlink="http://www.w3.org/1999/xlink" width="64" height="64"><defs><style type="text/css"></style></defs><path d="M512 1024C229.216 1024 0 794.784 0 512S229.216 0 512 0s512 229.216 512 512-229.216 512-512 512z m-7.36-414.784a97.248 97.248 0 1 1 0-194.496 97.248 97.248 0 0 1 0 194.496z m229.76-382.72l-364.96 137.952c-10.656 4.032-19.008 12.8-22.72 23.904L226.176 748.064c-10.304 30.72 18.08 60.256 47.904 49.792l363.392-127.776c11.104-3.904 19.84-12.896 23.616-24.384l122.016-369.92c10.272-31.104-18.88-60.608-48.736-49.28z" p-id="4908"></path></svg>