<?xml version="1.0" standalone="no"?><!DOCTYPE svg PUBLIC "-//W3C//DTD SVG 1.1//EN" "http://www.w3.org/Graphics/SVG/1.1/DTD/svg11.dtd"><svg t="1589963769252" class="icon" viewBox="0 0 1024 1024" version="1.1" xmlns="http://www.w3.org/2000/svg" p-id="17255" xmlns:xlink="http://www.w3.org/1999/xlink" width="64" height="64"><defs><style type="text/css"></style></defs><path d="M287.914667 937.198933a27.716267 27.716267 0 0 1 0-55.3984h394.24a27.716267 27.716267 0 0 1 0 55.3984zM817.595733 45.4656H152.439467A110.865067 110.865067 0 0 0 41.5744 156.330667v512a110.865067 110.865067 0 0 0 110.865067 110.830933h665.156266a110.865067 110.865067 0 0 0 110.830934-110.933333V156.330667a110.8992 110.8992 0 0 0-110.865067-110.865067z m-40.482133 226.6112l-213.7088 251.426133a31.505067 31.505067 0 0 1-2.901333 3.106134 38.8096 38.8096 0 0 1-54.852267-1.536l-120.661333-127.761067-152.337067 138.1376a27.682133 27.682133 0 0 1-37.239467-40.96l164.386134-149.230933a38.843733 38.843733 0 0 1 54.340266 2.048l119.057067 126.293333 201.693867-237.431467a27.716267 27.716267 0 0 1 42.222933 35.908267z m0 0" p-id="17256"></path></svg>