<?xml version="1.0" standalone="no"?><!DOCTYPE svg PUBLIC "-//W3C//DTD SVG 1.1//EN" "http://www.w3.org/Graphics/SVG/1.1/DTD/svg11.dtd"><svg class="icon" width="64px" height="64.00px" viewBox="0 0 1024 1024" version="1.1" xmlns="http://www.w3.org/2000/svg"><path d="M788.756757 1024c-107.935135 0-193.72973-85.794595-193.72973-193.72973s85.794595-193.72973 193.72973-193.729729 193.72973 85.794595 193.729729 193.729729-88.562162 193.72973-193.729729 193.72973z m110.702702-221.405405h-83.027027v-83.027027h-55.351351v83.027027h-83.027027v55.351351h83.027027v83.027027h55.351351v-83.027027h83.027027v-55.351351z m-359.783783 13.837837c0 47.048649 13.837838 94.097297 35.978378 130.075676-47.048649 13.837838-102.4 22.140541-174.356757 22.140541C119.005405 968.648649 47.048649 841.340541 47.048649 835.805405c0-5.535135-5.535135-5.535135-5.535135-11.07027 0-130.075676 71.956757-257.383784 182.659459-321.037838l2.767568-2.767567c11.07027-8.302703 24.908108-5.535135 30.443243 2.767567 13.837838 8.302703 69.189189 44.281081 143.913513 44.281081 71.956757 0 127.308108-33.210811 143.913514-44.281081 8.302703-8.302703 22.140541-13.837838 30.443243-8.302702 44.281081 24.908108 80.259459 58.118919 110.702703 96.864864-85.794595 35.978378-146.681081 121.772973-146.681081 224.172973z m-138.378379-357.016216c-124.540541 0-224.172973-102.4-224.172973-229.708108C177.124324 102.4 276.756757 0 401.297297 0s224.172973 102.4 224.172973 229.708108c5.535135 124.540541-99.632432 229.708108-224.172973 229.708108z" /></svg>
