<?xml version="1.0" standalone="no"?><!DOCTYPE svg PUBLIC "-//W3C//DTD SVG 1.1//EN" "http://www.w3.org/Graphics/SVG/1.1/DTD/svg11.dtd"><svg t="1589363889792" class="icon" viewBox="0 0 1024 1024" version="1.1" xmlns="http://www.w3.org/2000/svg" p-id="1275" xmlns:xlink="http://www.w3.org/1999/xlink" width="64" height="64"><defs><style type="text/css"></style></defs><path d="M547.9424 946.818844a114.2784 114.2784 0 0 0 19.962311-8.704l302.091378-165.956266a114.858667 114.858667 0 0 0 59.949511-100.352V352.005689a114.716444 114.716444 0 0 0-2.986667-25.4464L547.9424 533.048889v413.769955z m-71.753956-0.256V533.117156l-378.766222-206.381512a114.653867 114.653867 0 0 0-2.912711 25.270045v319.800889a114.858667 114.858667 0 0 0 60.080356 100.352l302.421333 165.961955a114.289778 114.289778 0 0 0 19.171556 8.442311z m413.582223-681.216a114.983822 114.983822 0 0 0-19.905423-13.693155L567.187911 85.691733A114.779022 114.779022 0 0 0 512 71.424a114.779022 114.779022 0 0 0-55.381333 14.336L154.328178 251.653689a114.915556 114.915556 0 0 0-19.882667 13.750044L512 471.182222l377.770667-205.835378zM512 1024a186.333867 186.333867 0 0 1-89.696711-23.392711l-302.415645-165.831111A186.390756 186.390756 0 0 1 22.755556 671.874844V352.005689a186.328178 186.328178 0 0 1 97.063822-162.901333L421.848178 23.204978a185.833244 185.833244 0 0 1 179.848533 0l302.415645 165.961955A186.390756 186.390756 0 0 1 1001.244444 352.068267v319.800889a186.328178 186.328178 0 0 1-96.995555 162.907022l-302.097067 165.831111A186.339556 186.339556 0 0 1 512 1024z" p-id="1276"></path></svg>
