<?xml version="1.0" standalone="no"?><!DOCTYPE svg PUBLIC "-//W3C//DTD SVG 1.1//EN" "http://www.w3.org/Graphics/SVG/1.1/DTD/svg11.dtd"><svg class="icon" width="64px" height="61.59px" viewBox="0 0 1064 1024" version="1.1" xmlns="http://www.w3.org/2000/svg"><path d="M1003.320525 330.26048L551.736525 7.41376a38.17472 38.17472 0 0 0-21.99552-6.63552 38.17472 38.17472 0 0 0-22.03648 6.63552L55.547085 330.26048c-54.14912 25.88672-56.5248 86.58944-55.296 93.7984 0 0.6144 0.57344 1.2288 0.57344 2.41664a95.68256 95.68256 0 0 0 95.19104 87.77728h20.23424V972.3904c0 21.05344 17.24416 38.5024 38.0928 38.5024h750.7968c20.84864 0 38.0928-17.44896 38.0928-38.5024V514.2528h20.23424c49.9712 0 90.39872-38.5024 95.19104-87.77728 0.57344-0.6144 0.57344-1.2288 0.57344-2.41664 1.2288-7.20896-1.76128-67.91168-55.9104-93.7984zM154.301645 437.28896H96.670925a20.56192 20.56192 0 0 1-20.23424-20.43904c0-13.23008 17.2032-23.42912 23.7568-26.46016l0.6144-0.57344 0.6144-0.6144L529.126605 83.1488l428.35968 306.66752 0.6144 0.57344 1.18784 0.6144s23.18336 10.24 23.18336 26.46016c0 10.81344-8.88832 20.43904-20.19328 20.43904h-57.7536a38.54336 38.54336 0 0 0-38.05184 38.5024V933.888H191.821005V475.79136a38.05184 38.05184 0 0 0-37.51936-38.5024zM500.577485 805.84704a235.9296 235.9296 0 0 0 138.60864-45.056L729.093325 851.5584a39.85408 39.85408 0 0 0 57.09824 0 41.69728 41.69728 0 0 0 0-57.7536L696.325325 703.0784a241.8688 241.8688 0 0 0 44.6464-140.0832c0-133.48864-107.7248-242.31936-239.77984-242.31936-132.7104 0-240.39424 108.83072-240.39424 242.8928 0 133.5296 107.7248 242.31936 239.77984 242.31936zM336.368845 563.6096c0-91.38176 73.76896-165.96992 164.2496-165.96992 90.39872 0 164.16768 74.5472 164.16768 165.96992 0 91.3408-73.76896 165.92896-164.20864 165.92896s-164.20864-74.5472-164.20864-165.92896z" /></svg>
