<?xml version="1.0" standalone="no"?><!DOCTYPE svg PUBLIC "-//W3C//DTD SVG 1.1//EN" "http://www.w3.org/Graphics/SVG/1.1/DTD/svg11.dtd"><svg t="1589964688752" class="icon" viewBox="0 0 1024 1024" version="1.1" xmlns="http://www.w3.org/2000/svg" p-id="7954" xmlns:xlink="http://www.w3.org/1999/xlink" width="64" height="64"><defs><style type="text/css"></style></defs><path d="M999.131429 288.914286L849.188571 435.565714a86.601143 86.601143 0 0 1-120.32 0L579.145143 288.841143a82.212571 82.212571 0 0 1 0-117.76L728.941714 24.356571a86.454857 86.454857 0 0 1 120.32 0L999.131429 171.154286a82.139429 82.139429 0 0 1 0 117.76zM364.982857 1024H93.842286C41.910857 1023.853714 0 982.674286 0 931.84V666.331429c0-50.834286 42.057143-91.940571 93.915429-92.013715h271.213714c51.858286 0.073143 93.842286 41.179429 93.915428 92.013715v265.508571c0 24.429714-9.874286 47.908571-27.501714 65.097143a95.085714 95.085714 0 0 1-66.56 27.062857z m31.305143-357.522286a31.012571 31.012571 0 0 0-31.305143-30.72H93.842286a31.085714 31.085714 0 0 0-31.378286 30.72v265.508572c0.073143 16.969143 14.043429 30.646857 31.378286 30.72H364.982857a31.012571 31.012571 0 0 0 31.305143-30.72V666.331429v0.146285z m-31.305143-204.8H93.842286C41.910857 461.750857 0 420.425143 0 369.664v-265.508571C0 53.174857 42.057143 12.068571 93.915429 11.995429h271.213714c51.858286 0 93.842286 41.179429 93.915428 91.940571v265.581714c-0.146286 50.761143-42.203429 91.794286-94.061714 91.794286v0.365714z m31.305143-357.449143a31.012571 31.012571 0 0 0-31.305143-30.72H93.842286a31.085714 31.085714 0 0 0-31.378286 30.72v265.508572c0 16.969143 14.043429 30.72 31.378286 30.72H364.982857a31.012571 31.012571 0 0 0 31.305143-30.72v-265.508572z m261.12 470.308572h271.140571c51.931429 0 93.915429 41.179429 93.988572 91.940571v265.508572c-0.073143 50.834286-42.130286 91.940571-93.988572 92.013714H657.408c-51.931429 0-93.915429-41.179429-93.988571-91.940571V666.331429c0.073143-50.834286 42.130286-91.940571 93.988571-92.013715v0.219429z m-31.305143 357.522286c0 16.822857 14.043429 30.573714 31.305143 30.573714h271.140571a31.085714 31.085714 0 0 0 31.378286-30.573714V666.331429a31.085714 31.085714 0 0 0-31.378286-30.72H657.408a31.012571 31.012571 0 0 0-31.305143 30.72v265.728z" p-id="7955"></path></svg>
