<?xml version="1.0" standalone="no"?><!DOCTYPE svg PUBLIC "-//W3C//DTD SVG 1.1//EN" "http://www.w3.org/Graphics/SVG/1.1/DTD/svg11.dtd"><svg t="1589946697953" class="icon" viewBox="0 0 1024 1024" version="1.1" xmlns="http://www.w3.org/2000/svg" p-id="12838" xmlns:xlink="http://www.w3.org/1999/xlink" width="64" height="64"><defs><style type="text/css"></style></defs><path d="M511.859807 64.039525c-246.864434 0-446.984241 200.12083-446.984241 446.983217 0 246.864434 200.12083 446.984241 446.984241 446.984241 246.863411 0 446.983217-200.119807 446.983217-446.984241C958.843024 264.160355 758.721171 64.039525 511.859807 64.039525L511.859807 64.039525zM788.416494 787.579429c-35.936467 35.936467-77.769224 64.144926-124.33682 83.8405-48.180326 20.380166-99.395778 30.711466-152.219867 30.711466s-104.037495-10.333346-152.219867-30.711466c-46.567595-19.695574-88.399329-47.904033-124.33682-83.8405-35.935444-35.936467-64.144926-77.769224-83.8405-124.335796-20.379143-48.181349-30.712489-99.397824-30.712489-152.22089s10.333346-104.037495 30.712489-152.22089c19.695574-46.566572 47.905056-88.399329 83.8405-124.335796 35.938514-35.936467 77.769224-64.144926 124.33682-83.841523 48.180326-20.379143 99.395778-30.711466 152.219867-30.711466 52.823066 0 104.038518 10.332323 152.219867 30.711466 46.566572 19.696598 88.399329 47.904033 124.335796 83.841523 35.936467 35.936467 64.144926 77.769224 83.841523 124.335796 20.379143 48.182372 30.711466 99.396801 30.711466 152.22089s-10.333346 104.038518-30.711466 152.22089C852.561419 709.810205 824.351937 751.642962 788.416494 787.579429L788.416494 787.579429z" p-id="12839"></path><path d="M723.078393 341.707522 444.440301 620.349707 302.721603 478.629985c-11.042497-11.042497-28.947286-11.042497-39.992853 0-11.041474 11.047614-11.041474 28.953426 0 39.996946l161.713079 161.710009 0.001023 0.00307c1.727341 1.725294 3.620457 3.182482 5.626137 4.371564 10.844999 6.402827 25.049512 4.949732 34.364669-4.371564l0.010233-0.00614 298.630425-298.630425c11.041474-11.044544 11.041474-28.948309 0.002047-39.993876C752.030795 330.662979 734.12703 330.662979 723.078393 341.707522L723.078393 341.707522z" p-id="12840"></path></svg>