<?xml version="1.0" standalone="no"?><!DOCTYPE svg PUBLIC "-//W3C//DTD SVG 1.1//EN" "http://www.w3.org/Graphics/SVG/1.1/DTD/svg11.dtd"><svg class="icon" width="64px" height="64.00px" viewBox="0 0 1024 1024" version="1.1" xmlns="http://www.w3.org/2000/svg"><path d="M924.78 337.61A449.35 449.35 0 1 0 960 512a446.29 446.29 0 0 0-35.22-174.39zM775 775a372 372 0 1 1 109-263 369.53 369.53 0 0 1-109 263zM715.13 440.38H571.58a8 8 0 0 1-7.61-5.53l-44.36-136.53a8 8 0 0 0-15.22 0L460 434.85a8 8 0 0 1-7.61 5.53H308.87a8 8 0 0 0-4.7 14.47l116.14 84.38a8 8 0 0 1 2.9 8.94L378.85 684.7a8 8 0 0 0 12.31 8.94l116.14-84.38a8 8 0 0 1 9.4 0l116.14 84.38a8 8 0 0 0 12.31-8.94l-44.36-136.53a8 8 0 0 1 2.9-8.94l116.14-84.38a8 8 0 0 0-4.7-14.47z" /></svg>
