<?xml version="1.0" standalone="no"?><!DOCTYPE svg PUBLIC "-//W3C//DTD SVG 1.1//EN" "http://www.w3.org/Graphics/SVG/1.1/DTD/svg11.dtd"><svg t="1589364037092" class="icon" viewBox="0 0 1024 1024" version="1.1" xmlns="http://www.w3.org/2000/svg" p-id="3176" xmlns:xlink="http://www.w3.org/1999/xlink" width="64" height="64"><defs><style type="text/css"></style></defs><path d="M456.494255 267.553039h526.238801a28.818651 28.818651 0 1 0 0-57.466778H456.494255a28.818651 28.818651 0 1 0 0 57.466778z" fill="" p-id="3177"></path><path d="M965.510075 0H484.801332a57.807827 57.807827 0 0 0-57.125728 57.125729V238.734388a28.818651 28.818651 0 1 0 57.466777 0V57.466778h480.367694v455.641632a28.818651 28.818651 0 0 0 57.466778 0V57.125729A57.807827 57.807827 0 0 0 965.510075 0z" fill="" p-id="3178"></path><path d="M786.118235 548.065945a236.347044 236.347044 0 0 0-77.588676 12.959867 245.89642 245.89642 0 0 0-490.769692 22.850291 270.622481 270.622481 0 0 0 2.557868 35.810158h-18.416653a202.242132 202.242132 0 0 0 0 404.313739H786.118235a237.540716 237.540716 0 1 0 0-475.251957z m0 418.296753H201.901082a145.286928 145.286928 0 0 1 0-289.891757 158.587843 158.587843 0 0 1 47.235304 7.673605A28.307077 28.307077 0 0 0 285.287594 647.993339a194.739051 194.739051 0 0 1-10.743048-63.605662 188.941216 188.941216 0 0 1 323.99667-133.350208 185.189675 185.189675 0 0 1 54.397335 132.497585 145.116403 145.116403 0 0 1 0 18.587177 28.136553 28.136553 0 0 0 12.107244 26.772357 27.454455 27.454455 0 0 0 30.523897 1.023147 180.756037 180.756037 0 1 1 90.548543 336.444963z" fill="" p-id="3179"></path><path d="M741.270275 412.498918a28.818651 28.818651 0 0 0 0 57.466777h251.864779a28.818651 28.818651 0 0 0 0-57.466777zM920.832639 366.62781a28.818651 28.818651 0 1 0 0-57.466778h-76.736053a28.818651 28.818651 0 1 0 0 57.466778zM844.778684 166.261449H920.832639a28.818651 28.818651 0 1 0 0-57.466778h-76.736053a28.818651 28.818651 0 1 0 0 57.466778z" fill="" p-id="3180"></path></svg>