<?xml version="1.0" standalone="no"?><!DOCTYPE svg PUBLIC "-//W3C//DTD SVG 1.1//EN" "http://www.w3.org/Graphics/SVG/1.1/DTD/svg11.dtd"><svg class="icon" width="64px" height="64.00px" viewBox="0 0 1024 1024" version="1.1" xmlns="http://www.w3.org/2000/svg"><path d="M794.85952 102.41536H285.71136c-69.87776 0-126.72512 56.84736-126.72512 126.72v42.99776H144.2816c-23.08608 0-41.86624 18.77504-41.86624 41.856 0 23.08608 18.78016 41.86112 41.86624 41.86112h14.70464v114.2784H144.2816c-23.08608 0-41.86624 18.78016-41.86624 41.86624 0 23.08096 18.78016 41.86112 41.86624 41.86112h14.70464v114.2784H144.2816c-23.08608 0-41.86624 18.78528-41.86624 41.86112 0 23.09632 18.78016 41.87136 41.86624 41.87136h14.70464v42.98752c0 69.87776 56.84736 126.72512 126.72512 126.72512h509.14816c69.87776 0 126.72512-56.84736 126.72512-126.72512V229.13536c0-69.87776-56.84224-126.72-126.72512-126.72zM242.7136 751.872h14.71488c23.08096 0 41.86624-18.77504 41.86624-41.87136 0-23.07584-18.78016-41.86112-41.86624-41.86112h-14.71488v-114.2784h14.71488c23.08096 0 41.86624-18.78016 41.86624-41.86112 0-23.08608-18.78016-41.86624-41.86624-41.86624h-14.71488v-114.2784h14.71488c23.08096 0 41.86624-18.77504 41.86624-41.86112 0-23.08096-18.78016-41.856-41.86624-41.856h-14.71488v-42.99776c0-23.7056 19.29216-42.99264 42.99776-42.99264h509.14816c23.71072 0 42.98752 19.28704 42.98752 42.99264v565.72416c0 23.71072-19.28192 42.98752-42.98752 42.98752H285.71136c-23.7056 0-42.99776-19.28192-42.99776-42.98752v-42.99264zM508.60032 629.66272h169.72288c23.08608 0 41.86624-18.77504 41.86624-41.86112 0-23.07584-18.78016-41.86112-41.86624-41.86112h-127.85664v-184.4224c0-23.08608-18.78528-41.86624-41.87136-41.86624-23.08096 0-41.856 18.78016-41.856 41.86624v226.28352c0.00512 23.08608 18.78016 41.86112 41.86112 41.86112z" /></svg>
