<?xml version="1.0" standalone="no"?><!DOCTYPE svg PUBLIC "-//W3C//DTD SVG 1.1//EN" "http://www.w3.org/Graphics/SVG/1.1/DTD/svg11.dtd"><svg t="1589946707436" class="icon" viewBox="0 0 1024 1024" version="1.1" xmlns="http://www.w3.org/2000/svg" p-id="13249" xmlns:xlink="http://www.w3.org/1999/xlink" width="64" height="64"><defs><style type="text/css"></style></defs><path d="M729.8 479.8H541.7V260.3c0-18.8-12.5-31.4-31.4-31.4S479 241.5 479 260.3v250.8c0 18.8 12.5 31.4 31.4 31.4h219.5c18.8 0 31.4-12.5 31.4-31.4-0.1-18.8-12.7-31.3-31.5-31.3z m219.5 31.3c0-241.4-197.5-439-439-439-241.4 0-439 197.5-439 439 0 166.2 90.9 310.4 228.9 385.7l-103.5 116h94.1l84.7-84.7c43.9 12.5 87.8 21.9 134.8 21.9 47 0 94.1-6.3 134.8-21.9l84.7 84.7h94.1l-103.5-116c138-75.3 228.9-219.5 228.9-385.7zM510.4 887.4c-206.9 0-376.2-169.3-376.2-376.2S303.5 135 510.4 135s376.2 169.3 376.2 376.2-169.3 376.2-376.2 376.2z m-439-721.2c0-53.3 40.8-94.1 94.1-94.1h62.7V9.5h-62.7C77.7 9.5 8.7 78.4 8.7 166.2v62.7h62.7v-62.7zM855.3 9.5h-62.7v62.7h62.7c53.3 0 94.1 40.8 94.1 94.1V229h62.7v-62.7C1012 78.4 943 9.5 855.3 9.5z m0 0" p-id="13250"></path></svg>