<?xml version="1.0" standalone="no"?><!DOCTYPE svg PUBLIC "-//W3C//DTD SVG 1.1//EN" "http://www.w3.org/Graphics/SVG/1.1/DTD/svg11.dtd"><svg t="1589364093758" class="icon" viewBox="0 0 1024 1024" version="1.1" xmlns="http://www.w3.org/2000/svg" p-id="3582" xmlns:xlink="http://www.w3.org/1999/xlink" width="64" height="64"><defs><style type="text/css"></style></defs><path d="M549.62087 415.543652a16.11687 16.11687 0 0 1-2.626783-31.966609l148.72487-24.798608a16.11687 16.11687 0 0 1 5.275826 31.766261l-148.72487 24.798608a17.474783 17.474783 0 0 1-2.649043 0.200348zM530.721391 383.042783a16.094609 16.094609 0 0 1-12.421565-26.334609l95.855304-116.402087a16.094609 16.094609 0 0 1 24.865392 20.457739L543.165217 377.165913a16.11687 16.11687 0 0 1-12.443826 5.87687zM578.448696 597.214609a16.072348 16.072348 0 0 1-15.070609-10.462609l-52.891826-141.200696a16.072348 16.072348 0 1 1 30.141217-11.264l52.891826 141.200696a16.072348 16.072348 0 0 1-15.070608 21.726609zM435.778783 596.769391a16.072348 16.072348 0 0 1-15.070609-21.726608l52.914087-141.334261a16.072348 16.072348 0 1 1 30.141217 11.264l-52.914087 141.334261a16.072348 16.072348 0 0 1-15.070608 10.462608zM465.875478 415.677217a18.209391 18.209391 0 0 1-2.671304-0.200347l-148.836174-24.687305a16.094609 16.094609 0 1 1 5.275826-31.766261l148.836174 24.687305a16.072348 16.072348 0 1 1-2.604522 31.966608zM483.84 383.643826a15.983304 15.983304 0 0 1-12.421565-5.876869l-95.810783-116.357566a16.11687 16.11687 0 0 1 24.865391-20.457739l95.810783 116.357565a16.11687 16.11687 0 0 1-12.443826 26.334609zM751.86087 722.476522H263.546435a16.094609 16.094609 0 0 1 0-32.189218h488.314435a16.094609 16.094609 0 0 1 0 32.189218zM507.725913 818.665739H263.546435a16.094609 16.094609 0 0 1 0-32.189217h244.179478a16.094609 16.094609 0 0 1 0 32.189217z" p-id="3583"></path><path d="M853.77113 955.547826H161.680696a16.094609 16.094609 0 0 1-16.094609-16.094609V81.207652c0-8.882087 7.212522-16.094609 16.094609-16.094609h692.090434c8.882087 0 16.094609 7.212522 16.094609 16.094609v858.245565a16.094609 16.094609 0 0 1-16.094609 16.094609zM177.775304 923.358609H837.676522V97.302261H177.775304v826.056348z"  p-id="3584"></path><path d="M507.725913 610.682435c-115.066435 0-208.695652-93.629217-208.695652-208.695652s93.629217-208.695652 208.695652-208.695653 208.695652 93.629217 208.695652 208.695653-93.629217 208.695652-208.695652 208.695652z m0-385.202087c-97.324522 0-176.506435 79.181913-176.506435 176.506435s79.181913 176.506435 176.506435 176.506434 176.506435-79.181913 176.506435-176.506434-79.181913-176.506435-176.506435-176.506435z"  p-id="3585"></path><path d="M507.748174 460.02087a58.12313 58.12313 0 0 1-58.056348-58.056348 58.10087 58.10087 0 0 1 58.056348-57.989565 58.056348 58.056348 0 0 1 57.989565 57.989565 58.10087 58.10087 0 0 1-57.989565 58.056348z m0-83.878957c-14.269217 0-25.86713 11.597913-25.867131 25.822609 0 14.269217 11.597913 25.86713 25.867131 25.86713a25.86713 25.86713 0 0 0 0-51.689739z"  p-id="3586"></path></svg>
