<?xml version="1.0" standalone="no"?><!DOCTYPE svg PUBLIC "-//W3C//DTD SVG 1.1//EN" "http://www.w3.org/Graphics/SVG/1.1/DTD/svg11.dtd"><svg t="1589363978024" class="icon" viewBox="0 0 1024 1024" version="1.1" xmlns="http://www.w3.org/2000/svg" p-id="2277" xmlns:xlink="http://www.w3.org/1999/xlink" width="64" height="64"><defs><style type="text/css"></style></defs><path d="M110.7 958.8v-37.3h801.6v37.3H110.7m577.9-55.9h-93.2L595 424l-111.5-80.3-261 111.8v447.4H110.7v-37.3h74.6V436.9l298.3-130.5 149.1 111.8v447.4h55.9v37.3zM277.7 513.5l131.3-58v74.6L278.5 586l-0.8-72.5zM409 623.3v74.6l-130.5 37.3-0.8-70.4L409 623.3zM278.5 809.7L409 772.4v93.2H278.5v-55.9z m447.4-652.5v745.6h55.9V223.2l-55.9-66zM483.5 399.6v503.3h55.9v-466l-55.9-37.3z m428.8 503.3h-93.2V213.2l-93.2-111.8-354.2 149v55.9l-37.3 37.3V231.8L744.5 64l111.8 149.1v652.4h55.9v37.4z m0 0" p-id="2278"></path></svg>