<?xml version="1.0" standalone="no"?><!DOCTYPE svg PUBLIC "-//W3C//DTD SVG 1.1//EN" "http://www.w3.org/Graphics/SVG/1.1/DTD/svg11.dtd"><svg t="1589612908289" class="icon" viewBox="0 0 1050 1024" version="1.1" xmlns="http://www.w3.org/2000/svg" p-id="1308" xmlns:xlink="http://www.w3.org/1999/xlink" width="65.625" height="64"><defs><style type="text/css"></style></defs><path d="M538.758737 649.862737c-29.372632 0-54.757053-0.943158-76.503579-2.802526a1069.918316 1069.918316 0 0 0 82.997895-65.805474c22.312421 27.971368 45.972211 49.771789 70.386526 65.805474-21.935158 1.859368-47.696842 2.802526-76.880842 2.802526m130.856421-21.072842c-39.666526-16.599579-72.299789-38.4-98.627369-65.428211 5.551158-1.104842 8.407579-2.613895 8.407579-4.311579 0-1.832421-2.290526-3.152842-6.682947-3.691789A262.467368 262.467368 0 0 1 518.359579 538.947368c-18.135579 30.019368-49.232842 59.095579-93.857684 87.417264a484.621474 484.621474 0 0 1-141.554527 61.520842c15.467789 8.003368 27.486316 21.234526 36.998737 39.693473a765.709474 765.709474 0 0 0 119.242106-64.673684v27.944421c19.833263-2.964211 51.873684-4.284632 96.714105-4.284631 44.463158 0 77.824 1.320421 99.381895 3.745684V659.132632c33.576421 18.863158 78.955789 35.031579 136.569263 48.855579-0.377263-8.030316 1.536-16.976842 5.551158-27.028211 4.203789-10.455579 9.916632-19.024842 17.542736-25.734737a342.851368 342.851368 0 0 1-125.305263-26.462316M336.842105 916.210526c46.888421-3.772632 118.730105-5.793684 215.309474-5.793684 96.525474 0 168.555789 1.994105 215.848421 5.793684v-53.032421a2243.584 2243.584 0 0 1-130.101895 5.766737c12.934737-21.315368 30.208-53.221053 51.2-95.312842 6.278737-12.153263 11.991579-19.132632 17.084632-21.126737 5.308632-1.994105 7.653053-3.772632 7.653052-5.389474 0-1.589895-3.125895-3.395368-9.027368-4.581052-14.120421-2.398316-31.986526-7.383579-52.978526-14.95579a430.457263 430.457263 0 0 1-58.691369 141.365895h-115.2c-34.519579 0-81.246316-1.994105-140.503579-5.766737L336.842105 916.210526z" p-id="1309"></path><path d="M437.490526 727.578947l-46.753684 15.225264c13.473684 29.561263 23.875368 60.200421 31.258947 92.56421l49.583158-15.629474A930.007579 930.007579 0 0 1 437.490526 727.578947M435.361684 459.237053c3.610947-1.940211 5.497263-3.907368 5.497263-5.874527 0-2.155789-2.074947-3.530105-6.063158-4.527158-18.863158-5.12-36.432842-10.994526-52.11621-17.677473a371.415579 371.415579 0 0 1-45.541053 81.515789c-18.485895 25.330526-36.648421 43.816421-54.191158 54.622316 16.249263 5.308632 29.264842 13.743158 39.289264 25.141895 11.506526-12.934737 28.510316-33.792 50.984421-62.652632h34.384842c4.904421 19.833263 8.138105 40.852211 10.024421 63.056842l46.618947-11.587368a817.960421 817.960421 0 0 1-16.976842-51.469474c32.687158 0 58.933895 1.562947 78.201263 4.71579v-44.005053c-20.021895 3.341474-47.777684 5.308632-83.86021 5.308632h-41.768421c16.437895-20.830316 28.564211-33.010526 35.516631-36.567579M551.612632 727.578947l-53.086316 8.380632c11.452632 21.153684 19.402105 45.271579 24.441263 72.461474l56.400842-11.749053L551.612632 727.578947zM648.192 451.772632c3.718737-2.694737 5.658947-4.581053 5.658947-5.712843 0-1.347368-2.344421-2.290526-7.410526-3.233684-17.515789-2.694737-33.899789-6.521263-49.852632-11.66821-20.264421 51.927579-43.843368 89.519158-71.114105 113.017263 15.198316 1.886316 29.022316 6.682947 41.310316 14.309053 7.194947-8.784842 15.764211-20.426105 25.114947-34.546527h45.783579c6.817684 24.629895 10.913684 47.912421 12.665263 68.904421l49.071158-9.539368a947.631158 947.631158 0 0 1-20.641684-59.553684c36.648421 0 66.236632 1.509053 89.222737 4.392421v-42.576842c-24.737684 3.233684-55.134316 5.146947-90.974316 5.146947h-63.326316c15.009684-20.992 26.327579-33.792 34.492632-38.938947" p-id="1310"></path><path d="M965.416421 264.515368a61.844211 61.844211 0 0 1-61.952 61.790316H148.506947a61.844211 61.844211 0 0 1-61.925052-61.790316A61.844211 61.844211 0 0 1 148.48 202.752h754.957474a61.844211 61.844211 0 0 1 61.952 61.763368z m0 623.777685a61.520842 61.520842 0 0 1-61.601684 61.44H148.156632a61.493895 61.493895 0 0 1-61.574737-61.44v-424.96a61.493895 61.493895 0 0 1 61.574737-61.413053H903.814737a61.520842 61.520842 0 0 1 61.601684 61.44v424.96zM917.827368 131.233684h-74.563368V36.298105a35.84 35.84 0 0 0-35.84-35.786105h-2.586947a35.84 35.84 0 0 0-35.84 35.786105v94.908632H285.210947V36.298105A35.84 35.84 0 0 0 249.397895 0.512h-2.586948a35.84 35.84 0 0 0-35.866947 35.786105v94.908632h-78.147368C66.964211 131.206737 13.473684 184.562526 13.473684 250.179368v654.821053A119.269053 119.269053 0 0 0 132.769684 1024H917.827368a119.296 119.296 0 0 0 119.296-118.999579v-654.821053c0-65.589895-53.517474-118.972632-119.296-118.972631z" p-id="1311"></path></svg>